<svg version="1.2" xmlns="http://www.w3.org/2000/svg" viewBox="0 0 1564 1564" width="1564" height="1564">
	<title>Goldman_Sachs-svg</title>
	<style>
		.s0 { fill: #7399c6 } 
		.s1 { fill: #ffffff } 
	</style>
	<g id="Layer">
		<path id="Layer" fill-rule="evenodd" class="s0" d="m0 0h1564v1564h-1564z"/>
		<g id="Layer">
			<path id="Layer" fill-rule="evenodd" class="s1" d="m1389.1 358.8h-55.1v-202.3h51.9v22.6c6.4-13.6 22.6-25.6 43.6-27.2 35.7-1.5 59.9 18.2 59.9 60.4v146.5h-56.6v-152.5c0-18.1 0-33.2-13-36.2-4.8-1.6-12.9 0-19.4 4.5-8.1 7.6-11.3 16.6-11.3 31.7zm-935.6-188.8c-12.9-10.6-29.1-18.1-48.5-18.1-19.4 0-34 7.6-48.6 18.1-22.7 18.2-37.2 51.4-37.2 87.6 0 37.8 14.5 69.5 37.2 87.6 14.6 10.6 29.2 18.1 48.6 18.1 19.4 0 35.6-7.5 48.5-18.1 24.3-18.1 37.3-49.8 37.3-87.6 0-36.2-13-69.4-37.3-87.6zm-21 87.6c0 37.8 0 68-6.5 83.1-4.8 7.5-9.7 12.1-21 12.1-9.7 0-16.2-4.6-19.4-12.1-8.1-15.1-8.1-45.3-8.1-83.1 0-36.2 0-67.9 8-83.1 3.3-7.5 9.8-12 19.5-12 11.3 0 16.2 4.5 21 12 8.1 15.1 6.5 46.9 6.5 83.1zm529.3 178.2c-43.7 0-71.2 22.7-71.2 58.9 0 27.2 21 39.3 55 58.9 30.7 16.6 43.7 28.7 43.7 48.4 0 19.6-14.6 30.2-34 30.2-30.8-1.6-43.7-25.7-51.8-65h-11.4v75.5h64.8c34 0 74.5-21.1 74.5-64.9 0-40.8-29.2-49.9-66.4-69.5-29.1-15.1-34-27.2-32.4-40.8 1.6-13.5 16.2-22.6 32.4-21.1 25.9 1.5 35.6 21.1 42.1 43.8h11.3v-54.4zm127.9-77v-146.5c0-42.3-24.3-61.9-59.9-60.4-24.3 1.5-38.9 16.6-45.3 28.7-8.1-21.2-25.9-30.2-51.8-28.7-21.1 1.5-37.3 13.6-43.7 27.2v-22.7h-50.2v202.4h55v-152.5c0-15.1 1.6-24.2 11.4-31.7 6.4-4.6 12.9-6.1 17.8-4.6 12.9 3.1 12.9 18.2 12.9 36.3v152.5h55v-154.1c0-13.6 3.3-22.6 11.4-30.2 6.5-4.5 12.9-6 17.8-4.5 12.9 3 14.5 18.1 14.5 36.2v152.6c0 0 55.1 0 55.1 0zm-561.7 0h56.7v-244.7h-56.7zm257.4 0v-244.6h-56.7v57.4c-4.8-10.6-16.2-18.2-32.3-18.2-40.5 0-72.9 39.3-74.5 99.7-1.6 40.8 13 108.8 69.6 108.8 22.7 0 35.6-12.1 40.5-22.7v19.6zm-66.4-185.7c11.3 15.1 11.3 51.3 11.3 80 0 30.2 1.7 69.5-11.3 86.1-4.9 6-9.7 9.1-17.8 9.1-11.3 0-17.8-12.1-21-31.8-1.7-18.1-1.7-40.7-1.7-64.9 0-40.8 3.3-86.1 24.3-86.1 8.1 0 11.3 3 16.2 7.6zm493.7-21.2c-45.4 0-77.7 22.7-76.1 49.9 1.6 16.6 14.6 22.6 25.9 22.6 16.2 1.5 34-6 32.4-27.2-1.7-13.6-13-13.6-11.4-22.6 0-7.6 11.4-10.6 17.8-12.1 16.2 0 24.3 6 24.3 19.6v33.3c0 12-3.2 13.5-34 25.6-34 13.6-64.7 22.7-64.7 66.5 0 46.8 34 55.9 53.4 55.9 24.3 0 42.1-10.6 48.5-27.2v22.6h53.5v-149.5c0-27.2-9.7-39.2-24.3-46.8-11.3-6-24.3-10.6-45.3-10.6zm12.9 148c0 21.2-6.5 40.8-17.8 45.3-9.7 3.1-21 0-22.7-16.6-1.6-18.1-1.6-28.7 0-40.8 1.7-15 4.9-28.6 22.7-39.2l17.8-10.6zm-814.1 135.9c-45.3 0-77.7 22.7-76.1 48.3 1.6 16.7 14.6 22.7 25.9 24.2 16.2 0 34-7.5 32.4-27.2-1.6-13.5-13-13.5-11.3-24.1 0-7.6 11.3-10.6 17.8-10.6 16.1-1.5 24.2 4.5 24.2 19.6v33.3c0 10.5-3.2 12-35.6 25.6-32.3 13.6-63.1 22.7-63.1 66.5 0 46.8 32.4 54.3 53.4 54.3 24.3 0 42.1-10.5 48.6-25.6v22.6h51.7v-151c0-27.2-8-37.8-22.6-46.8-11.3-6.1-24.3-9.1-45.3-9.1zm12.9 146.5c0 22.7-6.5 40.8-19.4 45.3-9.7 4.6-21.1 1.5-21.1-16.6-1.5-16.6-1.5-28.7 0-40.8 1.7-15.1 4.9-28.6 22.7-39.2l17.8-10.6zm424.1-86.1c0-42.3-24.3-63.4-59.9-60.4-17.8 1.5-32.4 9.1-40.5 19.6v-58.9h-55v139c0 51.3-38.9 99.6-77.7 98.1-27.5 0-34-19.6-37.3-40.7-4.8-30.2-4.8-65-1.6-102.7 3.3-24.2 9.8-43.8 29.2-43.8 14.5 0 16.2 9 9.7 15.1-6.5 7.5-16.2 15.1-11.4 31.7 4.9 18.1 35.7 21.1 50.2 7.6 11.4-12.1 9.7-31.8 1.7-43.9-9.8-15.1-25.9-21.1-50.2-21.1-30.8 0-89 25.7-89 107.2 0 87.6 59.8 102.7 93.8 102.7 38.9 0 72.8-31.7 82.6-57.4v54.4h55v-152.5c0-15.1 3.2-24.2 11.3-31.8 6.5-4.5 14.6-6 19.5-4.5 12.9 3 12.9 18.2 12.9 36.3v152.5h56.7c0 0 0-146.5 0-146.5zm-641-386.6c-79.3 0-119.7 69.5-119.7 134.4-1.7 65 19.4 125.3 90.6 132.9-34 9.1-64.7 31.7-66.4 68 0 42.3 22.7 54.4 71.3 80 33.9 16.6 58.2 28.7 59.8 61.9 0 25.7-14.5 43.8-45.3 43.8-24.3 0-59.9-13.6-74.4-92.1h-11.4v104.2h85.8c53.4 0 100.4-31.7 100.4-83.1 0-52.8-43.7-67.9-77.7-86-35.6-18.2-55.1-25.7-55.1-55.9 0-22.7 19.5-37.8 45.4-36.3 24.2 0 38.8 15.1 46.9 28.7 8.1 13.6 11.3 25.7 16.2 42.3h11.3v-216h-90.6v10.6c4.8 1.5 14.6 1.5 21 4.6 8.1 4.5 13 13.5 13 28.6v40.8c0 12.1-1.7 30.2-9.7 39.3q-7.3 9-24.3 9c-21.1 0-29.2-16.6-32.4-27.1-4.8-22.7-6.5-54.4-6.5-96.7 0-45.3 4.9-83 14.6-101.2 9.7-15.1 21-25.6 40.5-24.1 29.1 1.5 50.1 33.2 59.8 75.5h11.4v-86.1z"/>
		</g>
	</g>
</svg>