<svg version="1.2" baseProfile="tiny-ps" xmlns="http://www.w3.org/2000/svg" viewBox="0 0 1542 1543" width="1542" height="1543">
	<title>dls-logo-bluebox-solid-svg</title>
	<style>
		tspan { white-space:pre }
		.shp0 { fill: #ffffff } 
		.shp1 { fill: #006fcf } 
	</style>
	<path id="logo-blue-box-small-45-9x45-a" class="shp0" d="M1541.57 1541.57L0 1541.57L0 0L1541.57 0L1541.57 1541.57Z" />
	<path id="Layer" class="shp1" d="M1541.57 834.99L1541.57 0.69L0 0.69L0 1542.25L1541.57 1542.25L1541.57 1092.49C1538.13 1092.49 1541.57 834.99 1541.57 834.99Z" />
	<path id="Layer" class="shp0" d="M1352.73 749.15L1469.47 749.15L1469.47 477.92L1342.43 477.92L1342.43 515.69L1318.4 477.92L1208.53 477.92L1208.53 525.99L1187.93 477.92L985.37 477.92C978.5 477.92 971.63 481.35 964.77 481.35C957.9 481.35 954.47 484.79 947.6 488.22C940.73 491.65 937.3 491.65 930.43 495.09L930.43 477.92L350.2 477.92L333.03 522.55L315.87 477.92L178.53 477.92L178.53 525.99L157.93 477.92L48.07 477.92L0 594.65L0 749.15L78.97 749.15L92.7 711.39L120.17 711.39L133.9 749.15L738.17 749.15L738.17 714.82L762.2 749.15L930.43 749.15L930.43 728.55C933.87 731.99 940.73 731.99 944.17 735.42C947.6 738.85 954.47 738.85 957.9 742.29C964.77 745.72 971.63 745.72 978.5 745.72L1102.1 745.72L1115.83 707.95L1143.3 707.95L1157.03 745.72L1325.27 745.72L1325.27 711.39L1352.73 749.15L1352.73 749.15ZM1541.57 1092.49L1541.57 838.42L597.4 838.42L573.37 872.75L549.33 838.42L274.67 838.42L274.67 1109.65L549.33 1109.65L573.37 1075.32L597.4 1109.65L769.07 1109.65L769.07 1051.29L762.2 1051.29C786.23 1051.29 806.83 1047.85 824 1040.99L824 1113.09L947.6 1113.09L947.6 1078.75L971.63 1113.09L1483.2 1113.09C1503.8 1106.22 1524.4 1102.79 1541.57 1092.49L1541.57 1092.49Z" />
	<path id="Layer" fill-rule="evenodd" class="shp1" d="M1483.2 1027.25C1496.93 1027.25 1503.8 1020.39 1500.37 1006.65C1500.37 996.35 1493.5 989.49 1483.2 989.49L1442 989.49C1407.67 989.49 1387.07 972.32 1387.07 937.99C1387.07 907.09 1411.1 883.05 1448.87 883.05L1541.57 883.05L1524.4 920.82L1445.43 920.82C1435.13 920.82 1428.27 927.69 1428.27 937.99C1428.27 948.29 1435.13 955.15 1445.43 955.15L1486.63 955.15C1520.97 955.15 1541.57 972.32 1541.57 1006.65C1541.57 1040.99 1517.53 1065.02 1479.77 1065.02L1390.5 1065.02L1390.5 1027.25L1483.2 1027.25ZM1314.97 1027.25C1325.27 1027.25 1335.57 1020.39 1332.13 1006.65C1332.13 996.35 1325.27 989.49 1314.97 989.49L1273.77 989.49C1239.43 989.49 1218.83 972.32 1218.83 937.99C1218.83 907.09 1242.87 883.05 1280.63 883.05L1373.33 883.05L1356.17 920.82L1277.2 920.82C1266.9 920.82 1260.03 927.69 1260.03 937.99C1260.03 948.29 1266.9 955.15 1277.2 955.15L1318.4 955.15C1352.73 955.15 1373.33 972.32 1373.33 1006.65C1373.33 1040.99 1349.3 1065.02 1311.53 1065.02L1222.27 1065.02L1222.27 1027.25L1314.97 1027.25ZM1194.8 913.95L1091.8 913.95L1091.8 948.29L1191.37 948.29L1191.37 986.05L1091.8 986.05L1091.8 1023.82L1194.8 1023.82L1194.8 1061.59L1050.6 1061.59L1050.6 879.62L1194.8 879.62L1194.8 913.95ZM906.4 1061.59L865.2 1061.59L865.2 879.62L961.33 879.62C999.1 879.62 1023.13 903.65 1023.13 937.99C1023.13 965.45 1005.97 986.05 975.07 992.92L1036.87 1061.59L985.37 1061.59L930.43 996.35L909.83 996.35L906.4 1061.59ZM961.33 917.39L909.83 913.95L909.83 958.59L961.33 958.59C978.5 958.59 985.37 948.29 985.37 937.99C985.37 927.69 978.5 917.39 961.33 917.39ZM679.8 879.62L779.37 876.19C817.13 876.19 841.17 903.65 841.17 937.99C841.17 975.75 813.7 999.79 775.93 999.79L721 999.79L721 1061.59L679.8 1061.59L679.8 879.62ZM799.97 941.42C799.97 927.69 789.67 917.39 772.5 917.39L721 917.39L721 965.45L775.93 965.45C793.1 965.45 799.97 955.15 799.97 941.42ZM618 1061.59L573.37 999.79L528.73 1058.15L477.23 1058.15L549.33 968.89L477.23 879.62L528.73 879.62L573.37 937.99L618 879.62L669.5 879.62L597.4 968.89L669.5 1061.59L618 1061.59ZM463.5 913.95L360.5 913.95L360.5 948.29L460.07 948.29L460.07 986.05L360.5 986.05L360.5 1023.82L463.5 1023.82L463.5 1061.59L319.3 1061.59L319.3 879.62L463.5 879.62L463.5 913.95ZM1297.8 594.65L1290.93 580.92L1290.93 704.52L1249.73 704.52L1249.73 522.55L1304.67 522.55L1369.9 625.55L1380.2 642.72L1380.2 522.55L1421.4 522.55L1421.4 704.52L1369.9 704.52L1297.8 594.65ZM1191.37 704.52L1174.2 666.75L1084.93 666.75L1067.77 704.52L1023.13 704.52L1102.1 522.55L1157.03 522.55L1236 704.52L1191.37 704.52ZM1119.27 591.22L1102.1 632.42L1163.9 632.42L1146.73 591.22L1133 553.45L1119.27 591.22ZM916.7 615.25L916.7 611.82C916.7 560.32 947.6 522.55 1002.53 522.55L1050.6 522.55L1050.6 560.32L1005.97 560.32C975.07 560.32 957.9 580.92 957.9 611.82L957.9 615.25C957.9 646.15 975.07 666.75 1005.97 666.75L1016.27 666.75L999.1 704.52C947.6 704.52 916.7 670.19 916.7 615.25ZM844.6 525.99L885.8 525.99L885.8 704.52L844.6 704.52L844.6 525.99ZM700.4 704.52L659.2 704.52L659.2 522.55L755.33 522.55C793.1 522.55 817.13 546.59 817.13 580.92C817.13 608.39 799.97 628.99 769.07 635.85L830.87 704.52L779.37 704.52L724.43 639.29L703.83 639.29L700.4 704.52ZM755.33 560.32L703.83 556.89L703.83 601.52L755.33 601.52C772.5 601.52 779.37 591.22 779.37 580.92C779.37 570.62 772.5 560.32 755.33 560.32ZM628.3 556.89L525.3 556.89L525.3 591.22L624.87 591.22L624.87 628.99L525.3 628.99L525.3 666.75L628.3 666.75L628.3 704.52L484.1 704.52L484.1 522.55L628.3 522.55L628.3 556.89ZM267.8 556.89L267.8 704.52L226.6 704.52L226.6 522.55L295.27 522.55L336.47 646.15L377.67 522.55L446.33 522.55L446.33 704.52L405.13 704.52L405.13 556.89L353.63 704.52L315.87 704.52L267.8 556.89ZM151.07 666.75L61.8 666.75L44.63 704.52L0 704.52L78.97 522.55L130.47 522.55L209.43 704.52L164.8 704.52L151.07 666.75ZM92.7 591.22L75.53 632.42L137.33 632.42L120.17 591.22L106.43 553.45L92.7 591.22Z" />
</svg>