<svg version="1.2" xmlns="http://www.w3.org/2000/svg" viewBox="0 0 1558 536" width="1558" height="536">
	<title>celsius-svg</title>
	<defs>
		<linearGradient id="g1" x1="95.2" y1="365.3" x2="543.6" y2="365.3" gradientUnits="userSpaceOnUse">
			<stop offset="0" stop-color="#c7c9cb"/>
			<stop offset=".16" stop-color="#b4b5b7"/>
			<stop offset=".36" stop-color="#a1a2a3"/>
			<stop offset=".59" stop-color="#cecfd0"/>
			<stop offset=".7" stop-color="#e0e1e3"/>
		</linearGradient>
		<linearGradient id="g2" x1="187.2" y1="129.7" x2="425" y2="593.6" gradientUnits="userSpaceOnUse">
			<stop offset="0" stop-color="#464749" stop-opacity="1"/>
			<stop offset=".22" stop-color="#373738" stop-opacity=".67"/>
			<stop offset=".52" stop-color="#272626" stop-opacity=".3"/>
			<stop offset=".79" stop-color="#1d1b1b" stop-opacity=".08"/>
			<stop offset="1" stop-color="#1a1818" stop-opacity="0"/>
		</linearGradient>
		<linearGradient id="g3" x1="9.8" y1="85.6" x2="135.5" y2="85.6" gradientUnits="userSpaceOnUse">
			<stop offset="0" stop-color="#c7c9cb"/>
			<stop offset=".29" stop-color="#a1a3a5"/>
			<stop offset=".49" stop-color="#8e9091"/>
			<stop offset=".8" stop-color="#b0b2b3"/>
			<stop offset="1" stop-color="#c2c4c6"/>
		</linearGradient>
		<linearGradient id="g4" x1="98.5" y1="136.6" x2="568.8" y2="136.6" gradientUnits="userSpaceOnUse">
			<stop offset=".13" stop-color="#ffc861"/>
			<stop offset=".26" stop-color="#fcb44c"/>
			<stop offset=".54" stop-color="#f78218"/>
			<stop offset=".59" stop-color="#f6780d"/>
		</linearGradient>
	</defs>
	<style>
		.s0 { fill: url(#g1) } 
		.s1 { fill: url(#g2) } 
		.s2 { fill: url(#g3) } 
		.s3 { fill: url(#g4) } 
		.s4 { fill: #ffffff } 
		.s5 { fill: #f6780d } 
	</style>
	<g id="Layer_2">
		<g id="Celsius_Logo">
			<path id="Light_Grey" class="s0" d="m398.9 391.9q-5.6 2.5-11.5 4.3-5.8 1.9-11.9 3.2-6 1.3-12.1 1.9-6.1 0.7-12.3 0.7c-15.7-0.1-31.3-3.2-45.9-9.2-14.6-6.1-27.8-15-38.9-26.1-11.2-11.2-20-24.5-26-39-6-14.6-9.1-30.2-9.1-46 0.1-10.8 1.6-21.6 4.4-32 2.9-10.5 7.1-20.5 12.6-29.8 5.5-9.3 12.2-17.8 20-25.4 7.7-7.6 16.4-14.1 25.8-19.4 43.2-22.5 78.4-22.7 121.7-26.7-11.9 0.3-39.1 0.9-67.7 0.7q-6-0.1-11.9 0-6 0.1-11.9 0.3-6 0.2-11.9 0.7-5.9 0.4-11.9 1c-126.1 12.2-198.7 106-202.4 116q0 4 0 8.1c0 139.7 113.6 260 253.2 260 18.6 0 37.2-2.1 55.3-6.1 18.2-4.1 35.9-10.1 52.7-18.1 16.8-7.9 32.7-17.7 47.4-29.1 14.7-11.5 28.1-24.5 39.9-38.9 11.8-14.3-63.3-88.5-147.6-51.1z"/>
			<g id="Celsius_Logomark">
				<path id="Dark_Grey" class="s1" d="m546.4 442.9c0 0-63.2-88.4-147.5-51q-5.6 2.5-11.5 4.3-5.8 1.9-11.9 3.2-6 1.3-12.1 1.9-6.1 0.7-12.3 0.7c-15.7-0.1-31.3-3.2-45.9-9.2-14.6-6.1-27.8-15-38.9-26.1-11.2-11.2-20-24.5-26-39-6-14.6-9.1-30.2-9.1-46 0.1-10.8 1.6-21.6 4.4-32 2.9-10.5 7.1-20.5 12.6-29.8 5.5-9.3 12.2-17.8 20-25.4 7.7-7.6 16.4-14.1 25.8-19.4 43.2-22.5 78.4-22.7 121.7-26.7h-0.5-4.5c-13.5 0.3-37.6 0.8-62.7 0.6q-6-0.1-11.9 0-6 0-11.9 0.3-6 0.2-11.9 0.7-5.9 0.4-11.9 1c-126.1 12.2-198.7 106-202.4 116q0 4 0 8.1c0 139.7 113.6 260 253.2 260 18.6 0 37.2-2.1 55.3-6.1 18.2-4.1 35.8-10.2 52.6-18.1 16.9-7.9 32.8-17.7 47.5-29.1 14.6-11.5 28-24.5 39.8-38.9z"/>
				<path id="Degree" fill-rule="evenodd" class="s2" d="m87.9 4.8c7.6 3.2 14.6 7.8 20.4 13.6 5.8 5.9 10.5 12.8 13.6 20.4 3.2 7.7 4.8 15.8 4.8 24.1 0 25.4-15.3 48.4-38.8 58.1-23.5 9.7-50.5 4.3-68.5-13.6-18-18-23.3-45.1-13.6-68.6 9.7-23.5 32.6-38.8 58.1-38.8 8.2 0 16.4 1.6 24 4.8zm-14 82.2c3.1-1.3 6-3.2 8.4-5.6 2.5-2.5 4.4-5.3 5.7-8.5 1.3-3.2 2-6.6 2-10 0-10.6-6.4-20.1-16.1-24.2-9.8-4-21-1.8-28.5 5.7-7.5 7.5-9.7 18.7-5.7 28.5 4.1 9.8 13.6 16.1 24.2 16.1 3.4 0 6.8-0.6 10-2z"/>
				<path id="Orange_Gradient" class="s3" d="m348 149.1c38.9 0.2 68.2-0.5 72-0.7 109.2-8 145.1-123.5 148.3-131.8-82.5 8.1-214.4 4-214.4 4-136.7-2.8-253.2 109.2-255.9 245.9v1c1-7 74-104 202.4-116.5q6-0.6 11.9-1 5.9-0.4 11.9-0.6 5.9-0.3 11.9-0.4 5.9 0 11.9 0.1z"/>
			</g>
			<g id="Celsius">
				<g id="Group_24">
					<path id="Path_55" fill-rule="evenodd" class="s4" d="m1547.3 346.7q0.4 0.3 0.8 0.6 0.3 0.3 0.6 0.8 0.3 0.4 0.4 0.8 0.2 0.5 0.3 1 0 0.4 0.1 0.8 0.1 0.4 0.2 0.8 0.1 0.4 0.3 0.7 0.1 0.4 0.3 0.8 0 0 0 0.1 0.1 0 0.1 0.1 0 0-0.1 0 0 0.1 0 0.1 0 0 0 0-0.1 0-0.1 0 0 0-0.1 0 0 0 0 0h-3.3q-0.2-0.3-0.3-0.6-0.2-0.4-0.3-0.7-0.1-0.3-0.2-0.7-0.1-0.3-0.2-0.7v-0.6c-0.2-1.2-0.9-1.7-2.3-1.7h-1.2v4.3q0 0.1 0 0.1-0.1 0.1-0.1 0.1 0 0.1-0.1 0.1-0.1 0-0.1 0h-3q-0.1 0-0.1 0-0.1 0-0.1-0.1-0.1 0-0.1-0.1 0 0 0-0.1v-13.1l-1537.7-339.5c0 0 0 0 1537.9 339.5h0.3q0.6-0.1 1.2-0.1 0.6-0.1 1.2-0.2 0.6 0 1.2-0.1 0.6 0 1.2 0h0.2q0.6 0 1.2 0 0.5 0 1.1 0.2 0.6 0.1 1.1 0.3 0.5 0.3 1 0.6 0.2 0.1 0.4 0.3 0.2 0.2 0.3 0.4 0.2 0.2 0.3 0.4 0.2 0.3 0.3 0.5 0.2 0.7 0.2 1.4 0 0.7-0.3 1.3-0.3 0.7-0.8 1.2-0.5 0.5-1.2 0.7zm-3.6-4.6h-1.4v3.2h1.2q0.3 0 0.6 0 0.3 0 0.6-0.1 0.3-0.1 0.6-0.3 0.3-0.1 0.6-0.3 0.1-0.1 0.1-0.2 0.1-0.1 0.1-0.2 0.1-0.1 0.1-0.2 0-0.2 0-0.3c0-1.1-0.8-1.7-2.5-1.6z"/>
					<path id="Path_56" fill-rule="evenodd" class="s4" d="m1544.3 332.7c1.8 0 3.5 0.3 5.2 1 1.6 0.7 3.1 1.6 4.3 2.9 1.3 1.2 2.3 2.7 3 4.3 0.7 1.6 1.1 3.4 1.1 5.1v0.3c0 1.8-0.4 3.5-1.1 5.2-0.7 1.6-1.7 3.1-3 4.3-1.3 1.2-2.7 2.2-4.4 2.8-1.6 0.7-3.4 1-5.1 1q-1.4 0-2.7-0.2-1.4-0.3-2.6-0.8-1.3-0.5-2.4-1.3-1.2-0.7-2.1-1.6-1-0.9-1.7-2-0.7-1.1-1.2-2.3-0.6-1.2-0.8-2.5-0.3-1.3-0.3-2.6v-0.3c0.1-1.8 0.4-3.5 1.1-5.1 0.7-1.7 1.7-3.1 3-4.4 1.3-1.2 2.8-2.2 4.4-2.8 1.6-0.7 3.4-1 5.2-1zm9.3 11.5q-0.2-1-0.5-1.9-0.4-1-0.9-1.8-0.5-0.8-1.2-1.6-0.7-0.7-1.5-1.2-0.8-0.6-1.7-1-0.9-0.4-1.8-0.5-1-0.2-1.9-0.2-1 0-2 0.2-0.9 0.2-1.8 0.6-0.9 0.4-1.7 0.9-0.8 0.6-1.5 1.3-0.6 0.7-1.2 1.6-0.5 0.8-0.8 1.8-0.4 0.9-0.5 1.9-0.2 0.9-0.2 1.9 0 1 0.2 2 0.2 1 0.6 1.9 0.3 0.9 0.9 1.7 0.5 0.9 1.2 1.6 0.7 0.7 1.5 1.2 0.8 0.6 1.7 0.9 0.9 0.4 1.9 0.6 0.9 0.2 1.9 0.2 0.9 0 1.8-0.2 0.9-0.2 1.7-0.5 0.9-0.4 1.6-0.9 0.8-0.5 1.4-1.2 0.7-0.7 1.3-1.6 0.6-0.8 1-1.8 0.3-0.9 0.5-1.9 0.2-1 0.2-2.1 0-1-0.2-1.9z"/>
				</g>
				<g id="Group_25">
					<path id="Path_57" class="s4" d="m635.4 362.9c-4.5 0.1-9.1-0.3-13.6-1.1-4.5-0.9-8.9-2.2-13.1-4-4.2-1.7-8.3-3.9-12-6.5-3.8-2.6-7.3-5.6-10.4-8.9-18.5-19-18-42.5-18-75 0-32.4-0.5-55.9 18-74.9 3.1-3.3 6.6-6.3 10.3-8.9 3.8-2.6 7.8-4.8 12.1-6.5 4.2-1.8 8.6-3.1 13.1-4 4.5-0.8 9-1.2 13.6-1.1 34.1 0 60.5 20.1 67.1 59.3h-36.1c-3.6-15.1-12.8-26.6-30.7-26.6q-3.2-0.1-6.4 0.4-3.1 0.6-6.1 1.9-3 1.3-5.6 3.1-2.6 1.9-4.8 4.3c-6.8 7.9-8.9 16.9-8.9 53 0 36.2 2.1 45.1 8.9 53q2.2 2.5 4.8 4.3 2.6 1.9 5.6 3.2 2.9 1.2 6.1 1.8 3.2 0.6 6.4 0.5c17.9 0 27.1-11.5 30.7-26.6h36.1c-6.4 39.3-33.2 59.3-67.1 59.3zm91.5-1.5v-182.4h120v31.8h-84.5v42.7h72v31.8h-72v44.3h84.5v31.8zm154.8 0v-182.4h35.7v150.6h82.6v31.8zm197.4 1.5c-27.6 0-48.6-5.9-66.6-24.1l23.1-23c11.5 11.5 27.1 15.1 44 15.1 21 0 32.3-7.9 32.3-22.6q0.1-2.1-0.2-4.1-0.4-2.1-1.1-4-0.7-2-1.8-3.7-1.1-1.8-2.6-3.3-1.7-1.4-3.6-2.6-1.9-1.1-3.9-1.9-2.1-0.9-4.2-1.3-2.2-0.5-4.4-0.6l-22-3q-4.9-0.5-9.6-1.7-4.7-1.2-9.2-3.1-4.5-1.9-8.7-4.5-4.1-2.7-7.8-5.9-3.4-3.6-6-7.8-2.5-4.2-4.2-8.8-1.7-4.6-2.4-9.5-0.7-4.9-0.5-9.8c0-32.5 24.1-55.2 63.6-55.2 25.2 0 43.2 6.1 58.8 21.2l-22.5 22.3c-11.5-11-25.2-12.6-37.4-12.6-18.9 0-28.1 10.5-28.1 23.1q0 1.8 0.3 3.6 0.3 1.8 1 3.5 0.7 1.7 1.7 3.2 1 1.5 2.3 2.7 1.8 1.5 3.8 2.7 2 1.3 4.2 2.2 2.1 0.9 4.4 1.5 2.2 0.6 4.5 0.8l21.6 3.1c16.6 2.3 27.1 6.9 34.8 14.1 9.7 9.2 14.1 22.5 14.1 38.7 0 35.3-29.5 55.5-67.7 55.5zm94.8-183.9h35.3v182.4h-35.3zm138.5 183.8c-37.4 0-67.1-25.2-67.1-64v-119.8h35.3v118.7c0 21 12.3 33.6 31.5 33.6 19.2 0 31.7-12.6 31.7-33.6v-118.7h35.4v119.8c0 38.7-29.7 64-67.1 64zm150.5 0c-27.6 0-48.6-5.9-66.5-24l23-23.1c11.5 11.5 27.1 15.1 44.1 15.1 20.9 0 32.2-7.9 32.2-22.5q0.1-2.1-0.2-4.2-0.3-2-1-4-0.8-1.9-1.9-3.7-1.1-1.8-2.5-3.3-1.7-1.4-3.6-2.5-1.9-1.2-4-2-2-0.8-4.2-1.3-2.2-0.4-4.4-0.6l-22-3q-4.9-0.4-9.6-1.6-4.8-1.3-9.3-3.2-4.5-1.9-8.6-4.5-4.2-2.6-7.9-5.8-3.3-3.6-5.9-7.8-2.5-4.2-4.2-8.8-1.6-4.6-2.3-9.5-0.7-4.9-0.4-9.8c0-32.5 24-55.2 63.5-55.2 25.2 0 43.2 6.1 58.8 21.2l-22.5 22.3c-11.5-11-25.2-12.6-37.4-12.6-18.9 0-28.2 10.5-28.2 23.1q0 1.8 0.3 3.6 0.4 1.8 1.1 3.5 0.7 1.7 1.7 3.2 1 1.5 2.3 2.7 1.8 1.5 3.8 2.8 2 1.2 4.2 2.1 2.1 0.9 4.4 1.5 2.2 0.6 4.5 0.8l21.5 3.1c16.7 2.3 27.2 6.9 34.8 14.1 9.8 9.2 14.2 22.5 14.2 38.7 0 35.3-29.5 55.5-67.6 55.5z"/>
				</g>
			</g>
			<g id="Live_Fit">
				<g id="Group_27">
					<path id="Path_64" class="s5" d="m1173.9 461.9v-62.3h12.1v51.4h28.3v10.9zm54.6-62.3h12.2v62.3h-12.2zm53.7 62.2h-9.1l-20.5-62.2h12.6l12.5 40.3 12.5-40.3h12.5zm32.5 0v-62.3h41v10.8h-28.8v14.7h24.5v10.8h-24.5v15.1h28.8v10.9zm94-51.5v15.2h24.5v11h-24.5v25.2h-12.2v-62.2h41v10.8zm43.9-10.8h12.2v62.3h-12.2zm54.9 10.8v51.4h-12.2v-51.4h-16.3v-10.8h44.7v10.8z"/>
				</g>
			</g>
		</g>
	</g>
</svg>