<svg version="1.2" xmlns="http://www.w3.org/2000/svg" viewBox="0 0 1564 309" width="1564" height="309">
	<title>godaddy-svg</title>
	<style>
		.s0 { fill: #ffffff } 
	</style>
	<path id="Layer" fill-rule="evenodd" class="s0" d="m305.8 212.9c-34.7 55.5-88.9 88.1-137.2 87.5-48.3 0.6-102.6-32-137.3-87.5-47-75.4-40.3-164.6 15-199.2 35-21.8 81.2-16.7 122.2 9.2 41.1-25.9 87.3-31 122.3-9.2 55.3 34.6 62 123.8 15 199.2zm-244.2-8.6q2.5 3.6 5.2 7.1 2.6 3.5 5.4 6.8 2.9 3.4 5.8 6.6c-9.9-40.6-1.2-91.5 27.4-137.3q3.8-6.2 8.1-12.2 4.3-5.9 9-11.5 4.7-5.7 9.7-10.9 5.1-5.3 10.5-10.3-5.7-2.9-11.6-5.3c-26-10.3-50.4-9.7-68.9 1.9-18.4 11.5-29.7 33.2-31.9 61.1q-0.3 5.9-0.2 11.8 0.1 5.9 0.7 11.8 0.5 5.9 1.6 11.7 1.1 5.9 2.7 11.6 1.7 6.6 4 13 2.2 6.5 4.9 12.7 2.8 6.3 6 12.3 3.2 6 6.8 11.8 2.3 3.7 4.8 7.3zm243.1-68.6q1.1-5.9 1.7-11.8 0.5-5.8 0.6-11.8 0.1-5.9-0.3-11.8c-2.1-27.8-13.4-49.5-31.9-61.1-18.4-11.5-42.9-12.2-68.8-1.9q-5.5 2.3-10.7 5-5.3 2.6-10.3 5.8-5.1 3.1-9.8 6.6-4.8 3.5-9.2 7.4c-6.8 6-13.2 12.5-19.1 19.4-5.9 6.9-11.3 14.3-16.1 22-4.8 7.7-9 15.7-12.7 24.1-3.6 8.3-6.6 16.9-9 25.6-4.2 15.3-5.8 31.2-4.7 47 2.1 27.8 13.4 49.5 31.9 61.1q3.5 2.1 7.3 3.8 3.9 1.7 7.9 2.9 4 1.1 8.1 1.7 4.1 0.7 8.3 0.7h1.4q4.2 0 8.3-0.7 4.1-0.6 8.1-1.7 4-1.2 7.8-2.9 3.8-1.7 7.4-3.8c18.5-11.6 29.8-33.3 31.9-61.1 1-15.8-0.6-31.7-4.7-47-1.1-4.3-2.5-8.5-4-12.8l-44.1 27.6q-1 0.6-2.1 0.8-1.1 0.2-2.1-0.1-1.1-0.2-2-0.9-0.9-0.6-1.5-1.6l-10-16q-0.6-0.9-0.8-2-0.2-1.1 0.1-2.2 0.2-1.1 0.9-2 0.6-0.9 1.6-1.5l68.1-42.6q1-0.6 2.2-0.8 1.1-0.2 2.2 0.1 1.2 0.3 2.1 1.1 0.9 0.7 1.4 1.8c21.9 41.8 27.9 86.4 19 122.8q3-3.3 5.8-6.6 2.8-3.4 5.5-6.9 2.7-3.5 5.2-7.1 2.5-3.6 4.8-7.3 3.6-5.8 6.8-11.8 3.2-6.1 5.9-12.3 2.7-6.3 5-12.7 2.2-6.4 4-13 1.6-5.7 2.6-11.5z"/>
	<path id="Layer" fill-rule="evenodd" class="s0" d="m698.8 256.9c-38.3 0-69.3-30.2-69.3-67.6 0-37.4 31-67.6 69.3-67.6 38.4 0 69.4 30.2 69.4 67.6 0 37.4-31 67.6-69.4 67.6zm-0.1-35.5c17.9 0 31.3-14.3 31.3-31.9 0-17.7-13.4-32.2-31.3-32.2-17.6 0-31.1 14.5-31.1 32.1 0 17.7 13.5 32 31.1 32zm251.4-60.3c0 54.6-39.2 92.2-95.6 92.2h-70.4q-1.2 0-2.3-0.5-1.1-0.5-1.9-1.3-0.9-0.9-1.3-2-0.4-1.2-0.3-2.4v-171.9q0-1.1 0.4-2.2 0.5-1.1 1.3-1.9 0.8-0.8 1.9-1.2 1-0.5 2.2-0.5h70.4c56.4 0 95.6 36.8 95.6 91.7zm-41.2-0.1c0-32-21.5-55.3-52.7-55.3h-38.5v111.2h38.5c31.2 0 52.7-24.4 52.7-55.9zm183.6-35.2q1.1 0.5 1.9 1.3 0.7 0.8 1.2 1.8 0.4 1.1 0.3 2.2v116.6q0.1 1.1-0.4 2.1-0.4 1-1.1 1.8-0.8 0.8-1.9 1.2-1 0.4-2.1 0.4h-26.5q-1.1 0-2.1-0.5-1-0.4-1.8-1.2-0.7-0.7-1.1-1.7-0.5-1.1-0.5-2.1v-8.2c-6 10-19.9 17.3-36.9 17.3-33.1 0-63.8-26.4-63.8-67.7 0-41.4 31-67.4 64-67.4 17 0 30.6 7.3 36.7 17.3v-7.9q0-1.1 0.4-2.1 0.4-1 1.2-1.8 0.8-0.8 1.8-1.3 1-0.5 2.1-0.5h26.5q1.1 0 2.1 0.4zm-63.8 95.8c17.6 0 30.7-13.5 30.7-32.2 0-18.7-13.1-32.2-30.7-32.2-17.5 0-30.7 13.5-30.7 32.2 0 18.7 13.2 32.2 30.7 32.2zm212.5-151.7q1 0.4 1.8 1.2 0.8 0.7 1.2 1.8 0.4 1 0.3 2.1v172.7q0.1 1.1-0.3 2.1-0.4 1-1.2 1.8-0.8 0.8-1.8 1.2-1.1 0.4-2.2 0.4h-26.5c-3 0-5.5-2.5-5.5-5.5v-8.2c-7 10-19.9 17.4-36.9 17.4-33.1 0-63.8-26.5-63.8-67.7 0-41.5 30.5-67.5 63.2-67.5 17.3 0 31.2 7.3 37.3 16.8v-63.5q0-1.1 0.5-2.2 0.4-1 1.2-1.8 0.8-0.8 1.9-1.2 1-0.4 2.1-0.3h26.5q1.1-0.1 2.2 0.4zm-33.2 119.5c0-18-13.7-32.5-30.6-32.5-16.9 0-30.5 14.5-30.5 32.5 0 18 13.6 32.6 30.5 32.6 16.9 0 30.6-14.6 30.6-32.6zm181.8-119.5q1.1 0.4 1.8 1.2 0.8 0.7 1.2 1.8 0.4 1 0.4 2.1v172.7q0 1.1-0.4 2.1-0.4 1-1.2 1.8-0.8 0.8-1.8 1.2-1 0.4-2.1 0.4h-26.4q-1.1 0-2.2-0.4-1-0.5-1.7-1.2-0.8-0.8-1.2-1.8-0.5-1-0.5-2.1v-8.2c-7.1 10-19.9 17.4-36.9 17.4-33.1 0-63.8-26.5-63.8-67.7 0-41.5 30.4-67.5 63.2-67.5 17.3 0 31.2 7.3 37.3 16.8v-63.5q0-1.1 0.4-2.2 0.5-1 1.3-1.8 0.8-0.8 1.9-1.2 1-0.4 2.2-0.3h26.4q1.1-0.1 2.1 0.4zm-63.7 152.1c17.5 0 30.5-13.7 30.5-32.6 0-18.9-13.1-32.5-30.5-32.5-17.5 0-30.6 13.6-30.6 32.5 0 18.9 13.1 32.6 30.6 32.6zm206.6-87.7l-39.5 135.7c-7.7 24.1-24.7 38.6-51.2 38.6-12 0-23-2.5-31.6-7.4-5-2.9-9.2-5.5-9.2-9.7 0-2.6 0.9-3.9 2.4-6.3l7.9-11.8c2.2-3.3 3.8-4.4 6.2-4.4q0.7 0.1 1.4 0.2 0.7 0.1 1.3 0.3 0.7 0.3 1.3 0.6 0.6 0.3 1.2 0.7c4.9 3.2 9.5 6 16.5 6 8.2 0 14.4-2.6 17.7-12.3l3.4-11.3h-16c-3.9 0-6.1-2.3-7.1-5.5l-35.3-113.4c-1.4-4.4-0.1-8.9 6.4-8.9h27.9c3.4 0 5.8 1.1 7.3 6l26.1 91.3 24.4-91.3c0.8-3.1 2.9-6 7.1-6h26.4c5.2 0 6.8 3.6 5 8.9zm-913.3 40.4v72.4q0.1 1.2-0.4 2.3-0.4 1.2-1.3 2-0.8 0.8-1.9 1.3-1.2 0.4-2.4 0.4h-21.8q-1.2 0-2.3-0.4-1.1-0.4-2-1.3-0.8-0.8-1.3-2-0.4-1.1-0.4-2.3v-19c-13.9 17.6-38 28.6-65.3 28.6-51.3 0-91.3-38.6-91.3-93.5 0-57.1 43.2-96.5 97.9-96.5 40.3 0 72.5 17.4 86.9 52.3q0.1 0.3 0.2 0.7 0.1 0.3 0.2 0.7 0.1 0.4 0.2 0.7 0 0.4 0 0.8c0 1.6-1.1 2.9-4.6 4.1l-25.5 9.8q-0.6 0.3-1.2 0.4-0.6 0.1-1.2 0.1-0.6 0.1-1.2-0.1-0.6-0.1-1.2-0.3-0.5-0.3-1-0.7-0.4-0.3-0.8-0.8-0.4-0.4-0.7-0.9-0.3-0.5-0.6-1.1c-9.1-17.4-25.4-29.2-50.5-29.2-32.6 0-55.9 25.4-55.9 58.4 0 32 19.8 58.2 56.8 58.2 19.4 0 34.9-9.1 42.1-19.2h-23q-1.2 0-2.3-0.4-1.1-0.5-2-1.3-0.8-0.9-1.3-2-0.4-1.1-0.4-2.3v-19.7q0-1.2 0.4-2.3 0.5-1.1 1.3-1.9 0.9-0.9 2-1.3 1.1-0.5 2.3-0.5h67.5q1.2 0 2.3 0.4 1.1 0.4 2 1.2 0.8 0.8 1.3 1.9 0.4 1.1 0.4 2.3z"/>
	<path id="Layer" class="s0" d="m1533.5 98.6v-1.8q0-0.2 0.1-0.3 0 0 0-0.1 0.1 0 0.1 0 0.1 0 0.1 0 0 0 0.1 0h11.1q0.2 0 0.4 0.1 0.1 0.1 0.1 0.3v1.8q0 0 0 0.1 0 0 0 0.1-0.1 0-0.1 0 0 0.1 0 0.1-0.1 0-0.1 0.1 0 0-0.1 0 0 0-0.1 0 0 0-0.1 0h-4v11q0 0.1-0.1 0.2 0 0.1-0.1 0.2 0 0-0.1 0.1-0.1 0-0.2 0h-2.1q0 0-0.1 0 0 0-0.1 0 0-0.1 0-0.1-0.1 0-0.1 0 0-0.1-0.1-0.1 0 0 0-0.1 0 0 0-0.1 0 0 0-0.1v-11h-4.1q-0.1 0-0.2 0-0.1 0-0.1-0.1-0.1-0.1-0.1-0.1-0.1-0.1 0-0.2zm19.5-1.8l3 7 3.1-7q0-0.1 0-0.1 0-0.1 0.1-0.1 0 0 0-0.1 0.1 0 0.1 0 0.1-0.1 0.1-0.1 0.1 0 0.1 0 0.1 0 0.1 0 0.1 0 0.1 0h3.6q0.1 0 0.1 0 0.1 0 0.2 0.1 0 0 0.1 0.1 0 0.1 0 0.2v13.3q0 0 0 0.1 0 0.1-0.1 0.2-0.1 0-0.1 0.1-0.1 0-0.2 0h-2q0 0-0.1 0 0 0-0.1 0 0 0-0.1-0.1 0 0 0 0-0.1-0.1-0.1-0.1 0 0 0-0.1 0 0 0-0.1-0.1 0-0.1 0v-10.1l-3.2 7.3q-0.1 0.1-0.1 0.1 0 0.1 0 0.1-0.1 0.1-0.1 0.1 0 0-0.1 0.1 0 0-0.1 0 0 0-0.1 0.1 0 0-0.1 0 0 0-0.1 0h-1.6q-0.1 0-0.1 0-0.1 0-0.1 0-0.1-0.1-0.1-0.1-0.1 0-0.1 0 0-0.1-0.1-0.1 0 0-0.1-0.1 0 0 0-0.1 0 0 0-0.1l-3.3-7.2v10q0 0 0 0.1 0 0 0 0-0.1 0.1-0.1 0.1 0 0 0 0.1-0.1 0-0.1 0 0 0-0.1 0.1 0 0-0.1 0 0 0 0 0h-2.1q0 0-0.1 0 0 0 0 0-0.1 0-0.1-0.1 0 0-0.1 0 0-0.1 0-0.1 0 0-0.1-0.1 0 0 0-0.1 0 0 0 0v-13.3q0-0.1 0-0.2 0.1-0.1 0.1-0.1 0.1-0.1 0.2-0.1 0.1 0 0.2 0h3.4q0.2 0 0.4 0.1 0.1 0.1 0.2 0.3z"/>
</svg>