<svg version="1.2" baseProfile="tiny-ps" xmlns="http://www.w3.org/2000/svg" viewBox="0 0 1512 1515" width="1512" height="1515">
	<title>strbucks-svg</title>
	<style>
		tspan { white-space:pre }
		.shp0 { fill: #ffffff } 
		.shp1 { fill: #006341 } 
	</style>
	<path id="Layer" class="shp0" d="M756 1511.86C338.01 1511.86 0.14 1173.99 0.14 756C0.14 338.01 338.01 0.14 756 0.14C1173.99 0.14 1511.86 338.01 1511.86 756C1511.86 1173.99 1173.99 1511.86 756 1511.86Z" />
	<path id="Layer" fill-rule="evenodd" class="shp1" d="M1510.7 797.44C1509.74 815.51 1508.13 833.42 1505.91 851.13C1420.35 865.29 1389.77 789.05 1302.12 792.88C1307.36 811.48 1311.62 830.42 1314.89 849.77C1387.17 849.72 1416.3 917.29 1496.72 907.34C1492.48 928 1487.39 948.38 1481.52 968.46C1417.94 974.71 1395.54 911.52 1321.95 913.26C1322.55 923.74 1322.88 934.32 1322.88 945L1322.58 962.66L1465.48 1017.18C1457.99 1037.51 1449.63 1057.39 1440.51 1076.87C1397.55 1074.5 1382.74 1019.4 1317.39 1023.78C1315.42 1037.92 1312.93 1051.87 1309.96 1065.65C1366.72 1061.67 1378.94 1113.92 1419.6 1118.16C1409.24 1137.05 1398.08 1155.44 1386.22 1173.36C1362.13 1160.46 1341.25 1121.53 1295.57 1119.14C1300.26 1104.68 1304.36 1090.02 1307.84 1075.1C1267.33 1075.1 1221 1059.31 1182.15 1023.93C1194.75 952.23 1083.47 879.22 1083.47 826.72C1083.47 769.68 1112.31 738.11 1112.31 661.22C1112.31 604.16 1084.6 542.26 1042.8 499.96C1034.72 491.74 1026.43 485.09 1016.9 479.12C1055.3 526.64 1084.78 582.97 1084.78 648.22C1084.78 720.63 1051.09 758.85 1051.09 825.69C1051.09 892.5 1148.84 950.32 1148.84 1019.22C1148.84 1046.33 1140.18 1072.81 1111.61 1124.81C1155.49 1168.65 1212.66 1192.55 1249.54 1192.55C1261.51 1192.55 1267.93 1188.9 1272.22 1179.5C1275.89 1171.39 1279.4 1163.18 1282.7 1154.89C1322.43 1156.43 1340.62 1192.53 1362.61 1206.94C1350.54 1223.14 1337.87 1238.78 1324.59 1253.93C1309.85 1237.6 1290.05 1210.14 1261.06 1202.51C1255.87 1212.58 1250.37 1222.53 1244.6 1232.28C1269.57 1239.09 1286.65 1264.28 1299.88 1280.86C1285.62 1295.62 1270.78 1309.78 1255.34 1323.38C1245.69 1308.37 1230.67 1289.32 1213.84 1279.04C1207.62 1287.46 1201.14 1295.67 1194.47 1303.66C1208.78 1313.36 1221.4 1330.82 1229.64 1345.05C1211.8 1359.36 1193.36 1372.94 1174.26 1385.64C1164.84 1308.87 1060.06 1256.27 1088.3 1167.21C1079.03 1182.9 1067.97 1202.53 1067.97 1226.16C1067.97 1290.63 1136.65 1341.8 1142.12 1405.87C1127.88 1414.38 1113.32 1422.39 1098.48 1429.98C1096.01 1359.56 1023.3 1282.49 1023.3 1224.7C1023.3 1160.18 1107.8 1095.38 1107.8 1019.22C1107.8 943.01 1010.3 890.26 1010.3 823.34C1010.3 756.48 1051.77 718.01 1051.77 632.3C1051.77 569.52 1021.94 505.98 975.86 465.39C967.7 458.19 959.66 452.47 950.02 447.45C993.47 499.58 1018.67 546.87 1018.67 618.62C1018.67 699.21 971.15 743.96 971.15 822.86C971.15 901.8 1066.84 945.68 1066.84 1019.25C1066.84 1092.81 977.78 1154.81 977.78 1230.39C977.78 1299.15 1056.28 1367.77 1057.44 1449.35C1040.28 1456.83 1022.8 1463.66 1005.01 1469.86C1014.99 1387.45 926.64 1302.45 926.64 1235.21C926.64 1161.69 1019.02 1098.51 1019.02 1019.25C1019.02 939.94 925.1 903.08 925.1 821.68C925.1 740.33 982.72 695.28 982.72 605.39C982.72 535.33 948.13 472.32 897.59 433.27L894.39 430.85C889.63 427.32 885.7 431.58 889.07 435.76C924.85 480.43 943.97 525.61 943.97 592.49C943.97 674.73 877.79 741.54 877.79 821.2C877.79 915.22 966.67 942.1 966.67 1019.25C966.67 1096.36 871.36 1158.06 871.36 1239.94C871.36 1315.88 961.55 1400.15 946.09 1487.8C928 1492.48 909.66 1496.56 891.04 1499.89C907.97 1390.75 819.49 1312.37 819.49 1240.98C819.49 1163.68 918.2 1094.78 918.2 1019.25C918.2 948 847.35 924.72 838.03 851.84C836.75 841.88 828.76 834.5 817.75 836.34C803.36 838.96 784.92 848.44 755.95 848.44C726.98 848.44 708.54 838.94 694.12 836.34C683.14 834.53 675.15 841.91 673.87 851.84C664.57 924.72 593.68 947.97 593.68 1019.25C593.68 1094.78 692.41 1163.66 692.41 1240.98C692.41 1312.37 603.93 1390.75 620.84 1499.89C602.24 1496.54 583.88 1492.46 565.79 1487.8C550.32 1400.15 640.54 1315.88 640.54 1239.94C640.54 1158.06 545.21 1096.36 545.21 1019.25C545.21 942.1 634.11 915.22 634.11 821.2C634.11 741.54 567.9 674.75 567.9 592.49C567.9 525.63 587.03 480.46 622.83 435.76C626.18 431.58 622.27 427.32 617.49 430.85L614.31 433.27C563.82 472.22 529.26 535.23 529.26 605.29C529.26 695.18 586.88 740.23 586.88 821.58C586.88 902.95 492.95 939.81 492.95 1019.15C492.95 1098.41 585.34 1161.59 585.34 1235.11C585.34 1302.37 496.99 1387.35 506.99 1469.76C489.18 1463.56 471.69 1456.71 454.53 1449.25C455.72 1367.67 534.17 1299.02 534.17 1230.29C534.17 1154.71 445.16 1092.71 445.16 1019.15C445.16 945.58 540.8 901.69 540.8 822.76C540.8 743.86 493.31 699.11 493.31 618.52C493.31 546.77 518.48 499.48 561.93 447.35C552.26 452.37 544.25 458.09 536.11 465.29C490.03 505.88 460.23 569.42 460.23 632.2C460.23 717.91 501.7 756.38 501.7 823.24C501.7 890.16 404.2 942.91 404.2 1019.12C404.2 1095.28 488.7 1160.1 488.7 1224.6C488.7 1282.42 415.94 1359.49 413.49 1429.88C398.65 1422.29 384.09 1414.28 369.86 1405.77C375.35 1341.7 444 1290.53 444 1226.06C444 1202.43 432.97 1182.8 423.67 1167.11C451.91 1256.17 347.13 1308.77 337.71 1385.54C318.61 1372.84 300.15 1359.26 282.34 1344.95C290.55 1330.74 303.17 1313.26 317.51 1303.56C310.8 1295.6 304.36 1287.36 298.13 1278.94C281.28 1289.22 266.24 1308.27 256.61 1323.28C241.22 1309.7 226.36 1295.52 212.1 1280.76C225.32 1264.18 242.4 1238.99 267.37 1232.18C261.6 1222.43 256.11 1212.51 250.92 1202.4C221.92 1210.04 202.09 1237.5 187.38 1253.82C174.1 1238.66 161.41 1223.01 149.36 1206.84C171.36 1192.43 189.55 1156.3 229.25 1154.79C232.58 1163.05 236.08 1171.27 239.76 1179.4C244.04 1188.8 250.49 1192.45 262.43 1192.45C299.32 1192.45 356.46 1168.54 400.37 1124.71C371.8 1072.71 363.13 1046.23 363.13 1019.12C363.13 950.24 460.88 892.42 460.88 825.58C460.88 758.75 427.2 720.53 427.2 648.12C427.2 582.87 456.68 526.54 495.07 479.02C485.55 484.99 477.26 491.64 469.17 499.86C427.38 542.18 399.66 604.06 399.66 661.12C399.66 738.01 428.53 769.58 428.53 826.62C428.53 879.12 317.23 952.13 329.83 1023.83C290.98 1059.2 244.65 1075 204.11 1075C207.64 1089.92 211.74 1104.58 216.38 1119.04C170.73 1121.46 149.84 1160.38 125.73 1173.26C113.84 1155.34 102.71 1136.95 92.35 1118.06C132.99 1113.82 145.23 1061.57 202.02 1065.55C199.05 1051.77 196.53 1037.79 194.56 1023.68C129.21 1019.3 114.4 1074.42 71.44 1076.76C62.32 1057.29 53.96 1037.41 46.47 1017.08L189.4 962.56L189.09 944.9C189.09 934.22 189.42 923.64 190 913.16C116.41 911.44 94.01 974.6 30.43 968.36C24.58 948.28 19.47 927.92 15.26 907.24C95.63 917.19 124.78 849.62 197.08 849.67C200.36 830.32 204.61 811.38 209.83 792.78C122.18 788.98 91.6 865.21 6.06 851.03C3.82 833.32 2.23 815.41 1.28 797.34C100.72 808.45 138 726.7 228.55 736.7C237.09 715.06 247.01 694.12 258.2 673.97C144.68 654.02 106.13 748.95 0.47 734.36C11.88 326.95 345.77 0.14 756 0.14C1166.23 0.14 1500.12 326.95 1511.53 734.46C1405.84 749.05 1367.3 654.14 1253.8 674.07C1264.96 694.23 1274.89 715.16 1283.45 736.8C1373.95 726.78 1411.23 808.55 1510.7 797.44ZM611.67 502.96C610.48 506.89 612.09 509.43 616.63 507.39C629.25 501.72 643.61 499 659.21 499C687.83 499 713.05 509.51 727.96 527.8C734.56 549.56 735.11 581.08 727.66 599.07C715.87 596.42 711.63 587.3 700.12 587.3C688.61 587.3 679.69 595.39 660.16 595.39C640.66 595.39 638.37 586.17 625.55 586.17C610.46 586.17 607.69 601.71 607.69 619.25C607.69 697.43 679.54 805 755.97 805C832.39 805 904.24 697.43 904.24 619.25C904.24 601.71 900.64 586.7 884.87 584.66C877 590.33 869.77 595.39 851.79 595.39C832.26 595.39 826.87 587.3 815.38 587.3C801.5 587.3 802.89 616.58 786.41 618.22C775.42 591.81 774.9 557.95 784.02 527.8C798.96 509.51 824.15 499 852.77 499C868.36 499 882.82 501.75 895.32 507.39C899.88 509.43 901.47 506.86 900.28 502.96C884.92 451.69 826.16 412.01 756 412.01C685.84 412.01 627.06 451.69 611.67 502.96ZM756 654.52C765.17 654.52 767.21 651.02 773.51 651.07C779.51 651.12 791.12 655.86 793.61 660.21C793.44 662.46 792.58 664.42 791.02 666.18C777.59 668.2 771.57 675.66 756.03 675.66C740.48 675.66 734.43 668.2 721.03 666.18C719.42 664.42 718.61 662.43 718.44 660.21C720.96 655.86 732.54 651.09 738.52 651.07C744.79 651.04 746.8 654.52 756 654.52ZM963.42 349.93C979.95 303.07 1000.93 262.08 1027.54 222.35C956.99 229.83 898.02 255.63 854.99 299.72L821.3 211.42L896.08 145.38L795.96 138.3L756 45.19L716.02 138.3L615.9 145.38L690.67 211.42L657.01 299.72C613.96 255.63 554.98 229.83 484.49 222.35C511.04 262.11 532.03 303.1 548.56 349.93C509.66 318.21 461.54 299.19 406.14 295.26C439.37 337.99 468.82 383.54 490.64 432.51C493.11 438.03 498.4 439.85 504.11 437C580 399.28 665.5 378.07 755.97 378.07C846.44 378.07 931.93 399.31 1007.86 437C1013.58 439.85 1018.87 438.03 1021.31 432.51C1043.16 383.54 1072.61 337.99 1105.86 295.26C1050.46 299.22 1002.34 318.24 963.42 349.93ZM250.54 499.88C241.62 446.35 212.58 398.78 171.21 370.09C165.49 366.13 159.54 369.88 160.07 376.51C168.81 489.63 102.68 587.86 21.36 674.2C105.18 699.39 176.52 591.46 285.23 629.13C324.23 571.05 373.76 520.59 431.1 480.43C375.45 457.68 308.08 462.92 250.54 499.88ZM701.15 701.2C701.15 701.2 721.89 706.09 756 706.09C790.11 706.09 810.85 701.2 810.85 701.2C810.85 701.2 814.85 702.61 815.89 706.17C800.04 718.36 789.1 746.1 756 746.1C722.9 746.1 711.96 718.36 696.09 706.17C697.15 702.64 701.15 701.2 701.15 701.2ZM818.76 543.14C817.47 546.89 817.47 552.49 819.29 556.22C849.8 545.76 876.7 545.36 889.7 559.89C896.63 553.6 898.85 547.93 898.85 541.35C898.85 531.2 888.52 524.17 867.71 524.17C850.88 524.17 831.15 529.33 818.76 543.14ZM622.3 559.89C637.01 545.16 668.02 545.79 700.25 557.68C701.66 541.65 672.96 524.14 644.29 524.14C623.46 524.14 613.15 531.17 613.15 541.35C613.15 547.93 615.37 553.62 622.3 559.89ZM832.01 326.93C825.38 325.74 793.44 320.38 756 320.38C718.56 320.38 686.62 325.72 679.99 326.93C676.19 327.61 674.73 323.88 677.62 321.71C680.24 319.77 755.97 262.13 755.97 262.13L834.3 321.71C837.25 323.88 835.81 327.61 832.01 326.93ZM1490.67 674.25C1409.34 587.91 1343.24 489.68 1351.98 376.56C1352.51 369.93 1346.54 366.16 1340.84 370.14C1299.45 398.83 1270.4 446.4 1261.51 499.93C1203.94 462.97 1136.6 457.71 1080.95 480.48C1138.21 520.59 1187.77 571.05 1226.82 629.18C1335.48 591.51 1406.85 699.42 1490.67 674.25Z" />
	<g id="Layer">
	</g>
</svg>