<?xml version="1.0" encoding="UTF-8"?>
<svg version="1.1" xmlns="http://www.w3.org/2000/svg" width="1645" height="397">
<path d="M0 0 C0.734375 1.28515625 1.46875 2.5703125 2.203125 3.85546875 C2.92290527 5.11484253 2.92290527 5.11484253 3.65722656 6.3996582 C4.73265553 8.28198858 5.80751147 10.16464644 6.88183594 12.04760742 C9.63733901 16.87534167 12.4005108 21.69817628 15.1875 26.5078125 C39.57692437 68.67637133 39.57692437 68.67637133 35.33984375 86.828125 C29.36412286 103.6946619 10.59765975 112.5640608 -4 121 C-4.9286084 121.53753906 -5.8572168 122.07507813 -6.81396484 122.62890625 C-12.28730242 125.79479673 -17.76554646 128.95207869 -23.24609375 132.10546875 C-29.51131979 135.7133162 -35.75857351 139.35117403 -42 143 C-56.99736778 151.76352964 -72.02881884 160.47013475 -87.125 169.0625 C-93.19134149 172.5204637 -99.22096741 176.03995159 -105.25 179.5625 C-117.04743805 186.45515596 -128.87820407 193.288915 -140.71777344 200.10888672 C-146.14659941 203.23680148 -151.57319975 206.36857247 -157 209.5 C-163.58172877 213.29739963 -170.16364072 217.09448093 -176.74609375 220.890625 C-177.85662109 221.5312085 -178.96714844 222.17179199 -180.11132812 222.83178711 C-182.30373074 224.09615201 -184.49643214 225.35999897 -186.68945312 226.62329102 C-191.73066279 229.52879483 -196.76581566 232.44357174 -201.78515625 235.38671875 C-203.11365601 236.16354004 -203.11365601 236.16354004 -204.46899414 236.95605469 C-206.11225658 237.91788708 -207.75349716 238.88318523 -209.39233398 239.85253906 C-214.77681826 243 -214.77681826 243 -217 243 C-218.01443409 241.22792822 -219.02872465 239.45577428 -220.04296875 237.68359375 C-220.36301376 237.12440247 -220.68305878 236.56521118 -221.01280212 235.98907471 C-222.80299225 232.86031798 -224.59126786 229.73048563 -226.37646484 226.59887695 C-227.11684065 225.30028081 -227.85723791 224.0016969 -228.59765625 222.703125 C-228.96896667 222.05184128 -229.3402771 221.40055756 -229.72283936 220.72953796 C-232.04635841 216.65830339 -234.38982242 212.5992801 -236.74609375 208.546875 C-256.23412248 174.85818176 -256.23412248 174.85818176 -252.50390625 155.4140625 C-250.86300269 150.72311785 -248.10409604 146.8204259 -245 143 C-244.34 143 -243.68 143 -243 143 C-243 142.34 -243 141.68 -243 141 C-230.02831474 129.24111458 -213.24325891 121.22545181 -198.12792969 112.63476562 C-191.49553401 108.8649771 -184.89775761 105.03898057 -178.3125 101.1875 C-161.20363677 91.18595006 -144.0336277 81.29188293 -126.81591797 71.47900391 C-120.33223033 67.77703139 -113.88136014 64.02079285 -107.4375 60.25 C-98.6560913 55.11145587 -89.83985889 50.03702084 -81 45 C-71.28759011 39.46519185 -61.60857207 33.87660019 -51.95947266 28.23193359 C-42.28401411 22.57379901 -32.57924552 16.96716357 -22.86328125 11.37890625 C-19.35211668 9.35926954 -15.84773778 7.32946977 -12.35546875 5.27734375 C-11.36957764 4.70185791 -11.36957764 4.70185791 -10.36376953 4.11474609 C-8.72056703 3.15483789 -7.08079894 2.1890567 -5.44140625 1.22265625 C-3 0 -3 0 0 0 Z " fill="#3DC0DD" transform="translate(253,0)"/>
<path d="M0 0 C3.21735008 2.96098401 5.31833848 5.94389314 7.46875 9.7421875 C8.11674561 10.88034912 8.76474121 12.01851074 9.43237305 13.19116211 C10.1220195 14.41886243 10.81121881 15.64681403 11.5 16.875 C12.2130256 18.13760477 12.9263259 19.40005445 13.63989258 20.66235352 C15.43190795 23.83797216 17.21406568 27.01900818 18.9932251 30.20184326 C19.93796065 31.88919423 20.88751383 33.57384528 21.83740234 35.25830078 C39.90129136 67.31614447 39.90129136 67.31614447 38 85 C28.78952843 113.75298505 -16.42795233 130.16055566 -40.76611328 144.14111328 C-46.18136637 147.25388219 -51.59033238 150.3775379 -57 153.5 C-59.16013459 154.7461313 -61.32029085 155.99222503 -63.48046875 157.23828125 C-67.87959075 159.77615993 -72.27794321 162.31536583 -76.67578125 164.85546875 C-86.64647883 170.61308222 -96.62139741 176.36221893 -106.625 182.0625 C-115.01932313 186.84756897 -123.37039647 191.70413192 -131.71191406 196.58056641 C-142.34545444 202.79393662 -153.01521124 208.94395809 -163.68701172 215.09130859 C-168.16403908 217.67063062 -172.64002573 220.25175229 -177.11523438 222.83422852 C-179.30698711 224.09809416 -181.49967639 225.36033726 -183.69335938 226.62084961 C-188.72519263 229.51507927 -193.73971176 232.43106428 -198.71484375 235.421875 C-199.59148682 235.94426758 -200.46812988 236.46666016 -201.37133789 237.00488281 C-202.9926228 237.97306895 -204.60814374 238.95100074 -206.21655273 239.94042969 C-206.92626221 240.36227539 -207.63597168 240.78412109 -208.3671875 241.21875 C-208.97675293 241.58935547 -209.58631836 241.95996094 -210.21435547 242.34179688 C-212 243 -212 243 -214.03100586 242.921875 C-216.89191413 241.58240945 -217.63728383 239.7862745 -219.13671875 237.03125 C-219.70970703 235.99347412 -220.28269531 234.95569824 -220.87304688 233.88647461 C-221.47181641 232.76893799 -222.07058594 231.65140137 -222.6875 230.5 C-223.61852539 228.79372437 -223.61852539 228.79372437 -224.56835938 227.05297852 C-225.81505316 224.76268034 -227.05585384 222.46916377 -228.29052734 220.17236328 C-229.7430144 217.47690244 -231.21698249 214.79587679 -232.70703125 212.12109375 C-242.16423997 194.98623764 -250.40906474 176.75686883 -245.02734375 157.015625 C-240.43684625 143.54085667 -229.60710585 134.51877302 -218 127 C-216.85730823 126.23030071 -215.71543773 125.4593813 -214.57421875 124.6875 C-202.8428873 116.84164784 -190.56813446 109.95395051 -178.29364014 103.00898743 C-172.49813747 99.72540139 -166.7459883 96.36940313 -161 93 C-151.77236803 87.59580621 -142.50004638 82.27347245 -133.20898438 76.97949219 C-125.11255782 72.36497148 -117.04198543 67.70896206 -109 63 C-100.40482534 57.96810107 -91.77679783 52.99625079 -83.125 48.0625 C-64.56159386 37.47514902 -46.05111841 26.79821102 -27.59863281 16.01855469 C-18.41391752 10.65334814 -9.20993184 5.32177665 0 0 Z " fill="#3DC0DD" transform="translate(251,153)"/>
<path d="M0 0 C4.62455901 3.82752327 8.17828118 8.33421214 11.5625 13.26953125 C11.98917969 12.65207031 12.41585937 12.03460938 12.85546875 11.3984375 C22.52424879 -1.69927071 35.7017995 -8.90538011 51.703125 -11.4140625 C70.32324718 -13.47448586 87.63578211 -9.67195436 103.05859375 0.99609375 C105.06546415 2.6469696 106.81047881 4.35140422 108.5625 6.26953125 C109.24699219 7.00816406 109.93148437 7.74679688 110.63671875 8.5078125 C125.98787194 26.29925991 124.99382868 48.64859534 124.85546875 70.765625 C124.84986394 73.41220346 124.84545016 76.05875742 124.84260559 78.70533752 C124.8333498 84.92041773 124.80882555 91.13533613 124.77855712 97.35034567 C124.74480935 104.43638819 124.72847635 111.5224392 124.71347082 118.60854232 C124.68226865 133.1623 124.62733953 147.71588337 124.5625 162.26953125 C108.0625 162.26953125 91.5625 162.26953125 74.5625 162.26953125 C74.50642578 151.41626953 74.50642578 151.41626953 74.44921875 140.34375 C74.4189239 135.74541941 74.38776602 131.14712681 74.35351562 126.54882812 C74.29929705 119.25872771 74.24818273 111.96870245 74.21606445 104.6784668 C74.189954 98.79742245 74.14949676 92.91663208 74.09931374 87.03574562 C74.08269733 84.79804468 74.07115065 82.56029987 74.06488609 80.32254601 C74.0551881 77.1752938 74.02706071 74.02868378 73.99487305 70.8815918 C73.99630814 69.9673645 73.99774323 69.05313721 73.9992218 68.11120605 C73.86233743 58.57630235 72.28887431 49.86042463 65.4453125 42.859375 C59.63942964 37.95689715 52.44468685 36.91586102 45.08203125 37.44921875 C37.21809608 38.64404921 31.14503671 42.09102453 26.125 48.26953125 C22.71628587 54.81426238 22.25994704 60.34596196 22.24365234 67.58935547 C22.23360672 68.61435654 22.2235611 69.6393576 22.21321106 70.69541931 C22.18240596 74.07168027 22.16535114 77.44786202 22.1484375 80.82421875 C22.12972373 83.16977621 22.11015016 85.51532695 22.0897522 87.86087036 C22.03844725 94.02571654 21.9988126 100.19058453 21.96160889 106.35552979 C21.91451402 113.75705407 21.8529231 121.15847022 21.79376221 128.55990601 C21.70556993 139.79640406 21.63579088 151.0328816 21.5625 162.26953125 C4.4025 162.26953125 -12.7575 162.26953125 -30.4375 162.26953125 C-30.46328125 154.72207031 -30.4890625 147.17460937 -30.515625 139.3984375 C-30.54080007 134.60869027 -30.56713818 129.81900577 -30.59765625 125.02929688 C-30.64595442 117.43171981 -30.69001315 109.83428799 -30.70849609 102.23657227 C-30.72367225 96.10910444 -30.75813582 89.9820173 -30.80580902 83.85471916 C-30.82061274 81.52046968 -30.82854043 79.18616585 -30.82938385 76.85186958 C-30.83175818 73.57474606 -30.85887725 70.2986706 -30.89160156 67.02172852 C-30.8865712 66.06290771 -30.88154083 65.10408691 -30.87635803 64.11621094 C-30.99396682 56.47215042 -33.22764238 50.95262728 -37.125 44.45703125 C-42.26443488 39.59540366 -49.38532598 37.15155808 -56.4375 37.26953125 C-64.58717217 38.10506546 -70.96730152 40.40035051 -76.6875 46.45703125 C-82.14570681 53.44588083 -82.8831546 61.13219911 -82.86987305 69.74633789 C-82.8800647 70.7522699 -82.89025635 71.7582019 -82.90075684 72.7946167 C-82.93073341 76.08969809 -82.9401294 79.38448803 -82.94921875 82.6796875 C-82.96607678 84.97611953 -82.98422853 87.2725424 -83.00361633 89.56895447 C-83.05100013 95.59074032 -83.08088474 101.61248899 -83.10705566 107.63439941 C-83.14217754 114.87165533 -83.1991572 122.10876857 -83.25244904 129.34590912 C-83.33082657 140.32043143 -83.38153585 151.2947687 -83.4375 162.26953125 C-100.5975 162.26953125 -117.7575 162.26953125 -135.4375 162.26953125 C-135.4375 106.49953125 -135.4375 50.72953125 -135.4375 -6.73046875 C-118.9375 -6.73046875 -102.4375 -6.73046875 -85.4375 -6.73046875 C-84.9425 1.18953125 -84.9425 1.18953125 -84.4375 9.26953125 C-83.674375 8.25890625 -82.91125 7.24828125 -82.125 6.20703125 C-62.20488824 -16.94716925 -23.5588343 -16.72526217 0 0 Z " fill="#3B333C" transform="translate(811.4375,143.73046875)"/>
<path d="M0 0 C1.60065594 1.35479519 3.18484771 2.72933967 4.75 4.125 C5.46027344 4.75277344 6.17054688 5.38054687 6.90234375 6.02734375 C17.84630644 16.29912447 24.71781604 30.53107394 27.75 45.125 C27.75 46.115 27.75 47.105 27.75 48.125 C21.25723491 50.00668224 14.76074854 51.87505533 8.26147461 53.73413086 C6.04997776 54.36842357 3.83935787 55.0057821 1.62963867 55.64624023 C-1.5428387 56.56516962 -4.71828466 57.4731038 -7.89453125 58.37890625 C-9.38059624 58.81318687 -9.38059624 58.81318687 -10.89668274 59.25624084 C-11.81741074 59.51658615 -12.73813873 59.77693146 -13.68676758 60.04516602 C-14.4972908 60.27833023 -15.30781403 60.51149445 -16.14289856 60.75172424 C-18.25 61.125 -18.25 61.125 -21.25 60.125 C-22.20703125 57.90234375 -22.20703125 57.90234375 -23.0625 55.0625 C-25.92665913 46.69785344 -30.43757845 40.45061446 -38.25 36.125 C-48.87036764 31.19632453 -62.12283592 29.99571343 -73.25 33.8125 C-80.56225078 36.93702259 -85.71096701 40.26723577 -89.3671875 47.53125 C-91.49077336 53.77045802 -91.3172308 60.50268555 -88.6875 66.5625 C-84.11912325 74.09330536 -78.10770052 75.57540158 -69.95262146 77.57485962 C-62.69933115 79.31766948 -55.38341052 80.69741318 -48.05395508 82.07498169 C-26.44396234 86.1726068 -7.20626015 91.23321957 9.75 106.125 C10.91015625 107.12466797 10.91015625 107.12466797 12.09375 108.14453125 C25.53984715 120.55454215 31.61198406 138.01741685 32.69091797 155.94921875 C32.99064007 166.98691875 30.38639527 177.12696328 25.75 187.125 C25.11964844 188.52492188 25.11964844 188.52492188 24.4765625 189.953125 C15.46127991 208.19213602 -2.12245701 221.21740928 -20.87890625 228.0625 C-49.71866666 237.15220432 -82.35603885 235.06155297 -109.35986328 221.40185547 C-130.1406814 210.40972415 -144.04451478 192.78296391 -151.41796875 170.61328125 C-152.84073584 165.28959408 -153.28883766 160.64399338 -153.25 155.125 C-146.75496617 153.55367548 -140.2586748 151.98763555 -133.76147461 150.42529297 C-131.550568 149.89298655 -129.33995399 149.35946337 -127.12963867 148.82470703 C-123.95567428 148.05703065 -120.78068928 147.29371177 -117.60546875 146.53125 C-116.61475876 146.29063843 -115.62404877 146.05002686 -114.60331726 145.80212402 C-113.68258926 145.58189575 -112.76186127 145.36166748 -111.81323242 145.13476562 C-111.0027092 144.93935181 -110.19218597 144.74393799 -109.35710144 144.54260254 C-107.25 144.125 -107.25 144.125 -104.25 144.125 C-103.8478125 145.77435547 -103.8478125 145.77435547 -103.4375 147.45703125 C-100.33402726 159.44580757 -96.03755614 169.69158793 -85.375 176.91796875 C-71.60794998 184.73785562 -55.47378495 186.27055375 -40.25 182.125 C-32.58865761 179.28795 -27.42119331 174.69383551 -23.9765625 167.23046875 C-22.06921634 161.70326669 -22.91750165 156.32452878 -25.1484375 151.0078125 C-28.93121422 144.54221541 -36.55208671 140.45231566 -43.58656311 138.46484375 C-46.1427319 137.91330605 -48.70234838 137.43210419 -51.27734375 136.9765625 C-52.22452774 136.79668793 -53.17171173 136.61681335 -54.14759827 136.43148804 C-58.1553822 135.67040361 -62.16793196 134.93626804 -66.1809082 134.203125 C-92.27793413 129.39696385 -116.91182844 121.91972311 -133.5390625 99.78515625 C-140.70091888 88.6499412 -144.55596823 76.29057238 -145.25 63.125 C-145.30285156 62.35929687 -145.35570312 61.59359375 -145.41015625 60.8046875 C-146.12952629 41.85085072 -138.17606781 24.31977638 -126.1875 10.0625 C-113.01680238 -3.97732995 -95.81484905 -11.83633108 -77.25 -15.875 C-76.36570312 -16.06964844 -75.48140625 -16.26429687 -74.5703125 -16.46484375 C-49.32153396 -19.58381051 -20.59911919 -15.99718831 0 0 Z " fill="#3B333C" transform="translate(530.25,77.875)"/>
<path d="M0 0 C20.95378969 -0.6610935 39.54525945 5.75952562 55.59765625 19.28515625 C72.62781504 35.28972703 80.72347675 59.1636028 81.47265625 82.16015625 C81.51261719 83.31773437 81.55257813 84.4753125 81.59375 85.66796875 C82.04767398 111.67514274 74.25445764 136.80127786 56.015625 155.70703125 C39.38853097 171.7742085 20.9121111 176.91955526 -1.74853516 176.6862793 C-17.41918904 176.21178141 -30.3923521 172.27264929 -42.52734375 162.16015625 C-42.85734375 186.91015625 -43.18734375 211.66015625 -43.52734375 237.16015625 C-60.68734375 237.16015625 -77.84734375 237.16015625 -95.52734375 237.16015625 C-95.54937039 207.62174956 -95.56784177 178.08334762 -95.57840908 148.54493487 C-95.57965986 145.06128795 -95.58095417 141.57764104 -95.58227539 138.09399414 C-95.5825377 137.40043382 -95.58280001 136.70687351 -95.58307027 135.99229621 C-95.58742702 124.74767957 -95.5953146 113.50306801 -95.60449655 102.25845439 C-95.61383294 90.72893308 -95.61932443 79.19941536 -95.62143224 67.66989034 C-95.62273979 61.19036862 -95.6258284 54.71085844 -95.63307381 48.23134041 C-95.63982997 42.14035555 -95.64196154 36.04938707 -95.64045143 29.95839882 C-95.64072794 27.71575074 -95.64273544 25.47310216 -95.64654922 23.23045731 C-95.65148018 20.1829603 -95.65034426 17.13552624 -95.64759827 14.08802795 C-95.65051111 13.18824079 -95.65342395 12.28845363 -95.65642506 11.36140019 C-95.64146496 5.27427746 -95.64146496 5.27427746 -94.52734375 4.16015625 C-92.96187327 4.06688909 -91.39221603 4.04270043 -89.82397461 4.04663086 C-88.82301254 4.04670639 -87.82205048 4.04678192 -86.79075623 4.04685974 C-85.70222855 4.05202103 -84.61370087 4.05718231 -83.4921875 4.0625 C-81.82960655 4.06462242 -81.82960655 4.06462242 -80.13343811 4.06678772 C-76.57721306 4.07240592 -73.02104992 4.0849615 -69.46484375 4.09765625 C-67.06054778 4.10266891 -64.65625083 4.10723222 -62.25195312 4.11132812 C-56.34372598 4.12238126 -50.43554538 4.13965809 -44.52734375 4.16015625 C-44.03234375 11.09015625 -44.03234375 11.09015625 -43.52734375 18.16015625 C-42.31046875 16.96390625 -41.09359375 15.76765625 -39.83984375 14.53515625 C-28.93817297 4.86569944 -14.287344 0.90538038 0 0 Z M-32.62890625 57.05078125 C-42.34793717 67.55560616 -44.12045316 79.29248087 -43.8359375 93.125 C-43.35499011 103.7876635 -40.08438936 112.54154611 -32.52734375 120.16015625 C-24.48880562 127.4898854 -15.31719049 130.53529325 -4.5234375 130.36328125 C5.52929889 129.6817398 13.05053078 125.9430556 20.47265625 119.16015625 C29.61145685 108.64402114 31.26765649 95.63257102 30.47265625 82.16015625 C28.89172445 72.33745499 25.60562342 62.00717869 17.53515625 55.62890625 C2.16955953 44.7449419 -18.08795021 43.96932638 -32.62890625 57.05078125 Z " fill="#3B333C" transform="translate(1066.52734375,132.83984375)"/>
<path d="M0 0 C18.81 0 37.62 0 57 0 C64.86272382 15.72544764 64.86272382 15.72544764 67.5859375 21.94140625 C68.0351506 22.96097664 68.0351506 22.96097664 68.49343872 24.00114441 C69.12937048 25.44455035 69.76395259 26.88855162 70.3972168 28.33312988 C76.62646559 42.53597266 83.01013823 56.66449285 89.5 70.75 C89.87888367 71.57243195 90.25776733 72.39486389 90.64813232 73.24221802 C92.76229534 77.82959311 94.87967473 82.41547011 97 87 C100.12264273 80.95715706 102.79900872 74.82514623 105.34375 68.51953125 C105.75006149 67.52036179 106.15637299 66.52119232 106.57499695 65.491745 C107.44014845 63.36337853 108.30389922 61.23444222 109.16635132 59.10498047 C110.95646917 54.68557966 112.75393527 50.26918115 114.55107117 45.85263062 C115.44456892 43.65666288 116.33772853 41.46055754 117.23054504 39.26431274 C120.61105165 30.94917971 124.00296818 22.63889973 127.42773438 14.34188843 C128.17381794 12.53316921 128.9170144 10.72325994 129.66015625 8.91333008 C130.31371094 7.33201294 130.31371094 7.33201294 130.98046875 5.71875 C131.35067139 4.82091797 131.72087402 3.92308594 132.10229492 2.99804688 C133 1 133 1 134 0 C135.68801985 -0.09353163 137.37995207 -0.11744791 139.07055664 -0.11352539 C140.15160172 -0.11344986 141.23264679 -0.11337433 142.34645081 -0.11329651 C144.110485 -0.10555458 144.110485 -0.10555458 145.91015625 -0.09765625 C147.10732773 -0.0962413 148.30449921 -0.09482635 149.53794861 -0.09336853 C153.37949066 -0.08774979 157.22097543 -0.07519411 161.0625 -0.0625 C163.65950437 -0.05748741 166.25650965 -0.05292409 168.85351562 -0.04882812 C175.23569679 -0.03777427 181.6178443 -0.02101792 188 0 C187.40937649 5.27264774 185.66024717 9.45786316 183.45703125 14.2109375 C182.91734711 15.39851906 182.91734711 15.39851906 182.36676025 16.61009216 C181.59228736 18.31262649 180.81466627 20.01373158 180.03421021 21.71353149 C177.95104655 26.25165717 175.89158065 30.80054496 173.828125 35.34765625 C173.4123671 36.26203964 172.99660919 37.17642303 172.56825256 38.11851501 C168.99452267 45.98574149 165.50803718 53.88845957 162.0625 61.8125 C160.93287165 64.4065029 159.80252016 67.00019015 158.671875 69.59375 C158.23905212 70.58682411 158.23905212 70.58682411 157.79748535 71.59996033 C153.83409247 80.68471315 149.8212243 89.74768517 145.8125 98.8125 C145.41185333 99.71860016 145.01120667 100.62470032 144.59841919 101.55825806 C142.55114235 106.18824077 140.50346847 110.81804771 138.45556641 115.44775391 C134.86141507 123.57362257 131.2709455 131.70111791 127.68026733 139.82852173 C125.71404847 144.27896345 123.74766081 148.72933058 121.78125 153.1796875 C121.19587715 154.5045089 121.19587715 154.5045089 120.59867859 155.85609436 C118.14365594 161.41217834 115.68820388 166.96807236 113.23245239 172.52383423 C111.56336116 176.29995714 109.89445131 180.0761602 108.2255249 183.85235596 C107.0179236 186.58444941 105.80999989 189.31640015 104.60205078 192.04833984 C101.18992622 199.76705363 97.78158891 207.48728644 94.3984375 215.21875 C93.87765625 216.40774902 93.356875 217.59674805 92.8203125 218.82177734 C91.8885099 220.951387 90.95867222 223.081858 90.03125 225.21337891 C89.63679688 226.11491699 89.24234375 227.01645508 88.8359375 227.9453125 C88.50126465 228.71375488 88.1665918 229.48219727 87.82177734 230.27392578 C87 232 87 232 86 233 C84.31198015 233.09353163 82.62004793 233.11744791 80.92944336 233.11352539 C79.84839828 233.11344986 78.76735321 233.11337433 77.65354919 233.11329651 C75.889515 233.10555458 75.889515 233.10555458 74.08984375 233.09765625 C72.89267227 233.0962413 71.69550079 233.09482635 70.46205139 233.09336853 C66.62050934 233.08774979 62.77902457 233.07519411 58.9375 233.0625 C56.34049563 233.05748741 53.74349035 233.05292409 51.14648438 233.04882812 C44.76430321 233.03777427 38.3821557 233.02101792 32 233 C32.57869564 229.70877245 33.3679504 226.82238159 34.71142578 223.76513672 C35.24005974 222.55191994 35.24005974 222.55191994 35.77937317 221.31419373 C36.16413315 220.44480667 36.54889313 219.57541962 36.9453125 218.6796875 C37.34775681 217.75958389 37.75020111 216.83948029 38.1648407 215.89149475 C39.0308805 213.91266326 39.89907271 211.93477266 40.76919556 209.95773315 C42.13140166 206.86044435 43.48612676 203.75998722 44.83862305 200.65844727 C48.73632005 191.72334148 52.64670312 182.79400011 56.5847168 173.87658691 C58.00601618 170.65149827 59.41702423 167.4219827 60.82537842 164.19122314 C61.48042793 162.69566245 62.14042326 161.20225772 62.80548096 159.71112061 C63.72228125 157.65493246 64.6226613 155.59228583 65.51953125 153.52734375 C66.02589111 152.37999756 66.53225098 151.23265137 67.05395508 150.05053711 C68.58113438 145.1261228 67.16351474 141.93864607 64.8828125 137.5078125 C64.44670654 136.65050537 64.01060059 135.79319824 63.5612793 134.90991211 C63.08730713 133.99089111 62.61333496 133.07187012 62.125 132.125 C61.11159543 130.1297616 60.09992685 128.13364069 59.08984375 126.13671875 C58.57276855 125.11497559 58.05569336 124.09323242 57.52294922 123.04052734 C55.18288426 118.3686503 52.93037505 113.65663203 50.6875 108.9375 C46.54691291 100.23727126 42.3798296 91.55042243 38.1875 82.875 C37.5926873 81.64380113 36.99787938 80.41259994 36.40307617 79.18139648 C35.20165973 76.69474574 34.00004613 74.20819037 32.79833984 71.72167969 C31.0274021 68.05708374 29.25764429 64.39191897 27.48828125 60.7265625 C27.19977295 60.1289209 26.91126465 59.5312793 26.61401367 58.91552734 C25.16738779 55.91874295 23.72102359 52.92183265 22.27490234 49.92480469 C19.5512832 44.28099281 16.82575998 38.63813397 14.0930481 32.99871826 C12.80790392 30.34628955 11.52390419 27.69330758 10.23999023 25.0402832 C9.62988414 23.78040367 9.01922252 22.52079298 8.40795898 21.26147461 C0 3.93860274 0 3.93860274 0 0 Z " fill="#3B333C" transform="translate(1456,137)"/>
<path d="M0 0 C1 1 1 1 1.12025452 2.75270081 C1.11803391 3.51437057 1.11581329 4.27604034 1.11352539 5.06079102 C1.11341209 6.35201622 1.11341209 6.35201622 1.11329651 7.66932678 C1.10813522 8.60473801 1.10297394 9.54014923 1.09765625 10.50390625 C1.0962413 11.45692123 1.09482635 12.40993622 1.09336853 13.39183044 C1.08775152 16.44875165 1.07519616 19.50560077 1.0625 22.5625 C1.05748719 24.62955624 1.05292391 26.69661362 1.04882812 28.76367188 C1.03777656 33.84247588 1.02050055 38.9212257 1 44 C0.25145752 43.83991455 -0.49708496 43.6798291 -1.26831055 43.51489258 C-10.53003254 41.76916269 -19.95630537 41.85203544 -28 47 C-28.66 47 -29.32 47 -30 47 C-30.68620031 48.32338632 -31.34786461 49.65949948 -32 51 C-32.3403125 51.66 -32.680625 52.32 -33.03125 53 C-34.45038775 57.39474916 -34.4686888 61.72132147 -34.625 66.3125 C-34.810625 71.1078125 -34.810625 71.1078125 -35 76 C-23.12 76 -11.24 76 1 76 C1 90.52 1 105.04 1 120 C-10.88 120 -22.76 120 -35 120 C-35 161.25 -35 202.5 -35 245 C-52.16 245 -69.32 245 -87 245 C-87 203.75 -87 162.5 -87 120 C-95.91 120 -104.82 120 -114 120 C-114 105.48 -114 90.96 -114 76 C-105.09 76 -96.18 76 -87 76 C-87.0825 72.04 -87.165 68.08 -87.25 64 C-87.36968108 44.95174827 -83.66802456 28.17645707 -70.01171875 13.921875 C-51.1783611 -4.07038124 -24.22678294 -5.88147057 0 0 Z " fill="#3B333C" transform="translate(1446,61)"/>
<path d="M0 0 C17.16 0 34.32 0 52 0 C52 80.85 52 161.7 52 245 C34.84 245 17.68 245 0 245 C0 164.15 0 83.3 0 0 Z " fill="#3B333C" transform="translate(1173,61)"/>
<path d="M0 0 C17.16 0 34.32 0 52 0 C52 55.77 52 111.54 52 169 C34.84 169 17.68 169 0 169 C0 113.23 0 57.46 0 0 Z " fill="#3B333C" transform="translate(1262,137)"/>
<path d="M0 0 C16.83 0 33.66 0 51 0 C51 55.77 51 111.54 51 169 C34.17 169 17.34 169 0 169 C-1.86131707 167.13868293 -1.12622187 164.03028301 -1.12698364 161.54650879 C-1.12932363 160.52335563 -1.12932363 160.52335563 -1.13171089 159.47953272 C-1.13572296 157.17708885 -1.13253046 154.87471007 -1.12939453 152.57226562 C-1.13074848 150.92844097 -1.13252838 149.28461662 -1.13470459 147.64079285 C-1.13927968 143.16364746 -1.13748905 138.68652501 -1.1343255 134.2093792 C-1.13180229 129.5346457 -1.13413933 124.85991423 -1.13571167 120.18518066 C-1.13753348 112.33324835 -1.13512676 104.48132542 -1.13037109 96.62939453 C-1.12492845 87.53795001 -1.1266911 78.44652792 -1.1321975 69.35508394 C-1.13672831 61.56402789 -1.13737934 53.77297861 -1.13475883 45.98192167 C-1.13319588 41.32223868 -1.13300279 36.66256624 -1.13629532 32.00288391 C-1.13917356 27.62319699 -1.13719921 23.24353912 -1.13140106 18.86385536 C-1.13007321 17.25171774 -1.130468 15.6395777 -1.13266373 14.02744102 C-1.13537427 11.83609086 -1.13199532 9.64483526 -1.12698364 7.45349121 C-1.1264181 5.60954899 -1.1264181 5.60954899 -1.12584114 3.72835541 C-1 1 -1 1 0 0 Z " fill="#3B333C" transform="translate(588,137)"/>
<path d="M0 0 C7.2585104 7.76183776 9.90647968 15.31250505 9.703125 25.9140625 C8.49815033 33.93942781 4.79269009 41.49143365 -1.4765625 46.73828125 C-9.95906753 52.6360499 -18.03973907 54.13489058 -28.296875 52.9140625 C-36.28749981 50.36605553 -42.83834807 46.09241506 -47.296875 38.9140625 C-51.23453392 31.17979513 -52.80693208 23.19329267 -50.75390625 14.65625 C-47.50339022 5.209999 -41.31710353 -1.49106468 -32.546875 -6.078125 C-21.8029569 -10.89050498 -8.48184035 -7.70289583 0 0 Z " fill="#3B333C" transform="translate(634.296875,64.0859375)"/>
<path d="M0 0 C6.50601547 6.82371899 9.16204372 13.99548652 9.40234375 23.3671875 C9.02988428 33.51123068 6.36135685 38.62401045 -0.6171875 46.03515625 C-7.64547951 52.45031777 -15.23019366 53.61055131 -24.45703125 53.515625 C-32.92490652 52.86851663 -39.43636706 48.48745997 -45.03515625 42.2421875 C-50.7893619 33.78935934 -51.85547677 26.40244307 -51.03515625 16.2421875 C-49.14299426 8.09221264 -44.66483181 1.19167969 -37.5703125 -3.328125 C-25.1890009 -9.84460479 -10.88409974 -9.4008539 0 0 Z " fill="#3B333C" transform="translate(1309.03515625,63.7578125)"/>
</svg>
