<svg xmlns="http://www.w3.org/2000/svg" xmlns:xlink="http://www.w3.org/1999/xlink" width="112" height="35.874" viewBox="0 0 112 35.874">
  <defs>
    <clipPath id="clip-path">
      <rect id="Rectangle_407" data-name="Rectangle 407" width="112" height="35.874" fill="none"/>
    </clipPath>
  </defs>
  <g id="Group_410" data-name="Group 410" transform="translate(0 0)">
    <g id="Group_409" data-name="Group 409" transform="translate(0 0)" clip-path="url(#clip-path)">
      <path id="Path_620" data-name="Path 620" d="M61.181,9.942a2.528,2.528,0,0,0-1.863,1.863l-2.174,7.453L56.678,17.4A2.016,2.016,0,0,0,52.8,18.482l1.242,4.348a2.112,2.112,0,0,0,4.037,0l2.019-7.3,1.863,6.677a2.806,2.806,0,0,0,5.435,0l4.037-14.13,3.727,13.353a3.962,3.962,0,0,0,7.608-2.174L78.106,2.8A3.921,3.921,0,0,0,73.293.161,3.768,3.768,0,0,0,70.653,2.8l-4.5,14.44L64.6,11.961a2.66,2.66,0,0,0-3.416-2.019" transform="translate(29.138 0.001)" fill="#bed733"/>
      <path id="Path_621" data-name="Path 621" d="M79.45,16.3h0c0,1.241-.311,2.019-2.019,2.019s-2.019-.932-2.019-1.863V16.3c0-1.088.311-1.865,2.019-1.865s2.019.776,2.019,1.865M74.171,29.968a4.778,4.778,0,0,1-2.95-.932A5.007,5.007,0,0,1,69.823,25V18.323H67.8c-1.087,0-1.242-.155-1.242-1.863S66.873,14.6,67.8,14.6h1.863v-2.64c0-1.242.155-1.553,2.174-1.553s2.174.311,2.174,1.553V24.379c0,1.242.155,1.553.466,1.863s1.863.155,2.795,0c.776-.155.776.155,1.087,1.4s.155,1.708-.621,1.863a12.448,12.448,0,0,1-3.571.466M54.917,18.323c-.776.155-.776-.155-1.087-1.4s-.311-1.71.466-1.863a19.72,19.72,0,0,1,5.279-.776,4.792,4.792,0,0,1,4.969,2.95,12.428,12.428,0,0,1,.466,4.813v5.59a1.5,1.5,0,0,1-1.087,1.553,13.25,13.25,0,0,1-4.813.932c-3.727,0-6.677-1.087-6.677-4.813S54.917,20.5,58.488,20.5a11.752,11.752,0,0,1,2.329.155v-.776c0-1.4-.621-2.174-2.484-2.174a26.331,26.331,0,0,0-3.416.621m4.348,8.7a5.582,5.582,0,0,0,1.708-.311V23.6a.152.152,0,0,0-.155-.155,7.56,7.56,0,0,0-1.863-.155c-1.553,0-2.484.311-2.484,1.863s1.087,1.863,2.795,1.863m-9.937,1.863a7.7,7.7,0,0,1-4.037,1.242,16.44,16.44,0,0,1-4.813-.776c-.776-.311-.776-.466-.621-1.708s.311-1.708,1.087-1.553a36.975,36.975,0,0,0,4.037.776,1.538,1.538,0,0,0,1.708-1.242c.155-.932-.776-1.553-2.329-1.863-1.863-.466-4.348-1.4-4.5-4.658,0-2.484,1.863-4.5,5.124-4.5a11.482,11.482,0,0,1,4.5.776c.776.155.776.62.466,1.863s-.311,1.553-1.087,1.4a13.227,13.227,0,0,0-3.571-.621c-.621,0-1.4.311-1.4,1.087s.932,1.087,2.019,1.553a10.092,10.092,0,0,1,3.416,1.708,3.909,3.909,0,0,1,1.4,3.105,3.969,3.969,0,0,1-1.4,3.416m-22.2-10.559c-.776.155-.776-.155-1.087-1.4s-.155-1.71.621-1.863a19.72,19.72,0,0,1,5.279-.776,4.792,4.792,0,0,1,4.969,2.95,12.466,12.466,0,0,1,.621,4.813v5.59a1.5,1.5,0,0,1-1.087,1.553,12.653,12.653,0,0,1-4.813.932c-3.727,0-6.677-1.087-6.677-4.813S27.433,20.5,31,20.5a11.752,11.752,0,0,1,2.329.155v-.776c0-1.4-.621-2.174-2.484-2.174a31.091,31.091,0,0,0-3.727.621m4.348,8.7a5.582,5.582,0,0,0,1.708-.311s.155,0,0-.155V23.6a.152.152,0,0,0-.155-.155,7.56,7.56,0,0,0-1.863-.155c-1.553,0-2.484.311-2.484,1.863s1.087,1.863,2.795,1.863M19.98,29.813c-2.019,0-2.174-.311-2.174-1.553V15.992c0-1.241.155-1.553,2.174-1.553s2.174.312,2.174,1.553V28.26c0,1.4-.155,1.708-2.174,1.553M14.08,10.4c-1.863,0-2.174.311-2.484,1.553L8.024,25.31,4.453,11.957C4.142,10.715,3.832,10.4,1.969,10.4s-2.174.311-1.863,1.553L4.919,28.416c.466,1.242,1.242,1.553,3.105,1.553s2.795-.311,3.261-1.553l4.658-16.459c.466-1.242,0-1.553-1.863-1.553" transform="translate(0 5.751)" fill="#bed733"/>
    </g>
  </g>
</svg>
